<svg width="9" height="9" viewBox="0 0 9 9" fill="none" xmlns="http://www.w3.org/2000/svg">
<path d="M8.35355 1.35355C8.54882 1.15829 8.54882 0.841709 8.35355 0.646447C8.15829 0.451184 7.84171 0.451184 7.64645 0.646447L8.35355 1.35355ZM0.5 8C0.5 8.27614 0.723857 8.5 1 8.5L5.5 8.5C5.77614 8.5 6 8.27614 6 8C6 7.72386 5.77614 7.5 5.5 7.5L1.5 7.5L1.5 3.5C1.5 3.22386 1.27614 3 1 3C0.723858 3 0.5 3.22386 0.5 3.5L0.5 8ZM7.64645 0.646447L0.646447 7.64645L1.35355 8.35355L8.35355 1.35355L7.64645 0.646447Z" fill="#F27628"/>
</svg>
