<svg width="24" height="24" viewBox="0 0 24 24" fill="none" xmlns="http://www.w3.org/2000/svg">
<path d="M8 11.1667H8.5V10.6667V2.66667V2.16667H8H2.66667H2.16667V2.66667V10.6667V11.1667H2.66667H8ZM2.16667 21.3333V21.8333H2.66667H8H8.5V21.3333V18.6667V18.1667H8H2.66667H2.16667V18.6667V21.3333ZM15.5 21.3333V21.8333H16H21.3333H21.8333V21.3333V13.3333V12.8333H21.3333H16H15.5V13.3333V21.3333ZM16 2.16667H15.5V2.66667V5.33333V5.83333H16H21.3333H21.8333V5.33333V2.66667V2.16667H21.3333H16ZM13.8333 23.5V11.1667H23.5V23.5H13.8333ZM0.5 12.8333V0.5H10.1667V12.8333H0.5ZM0.5 23.5V16.5H10.1667V23.5H0.5ZM13.8333 0.5H23.5V7.5H13.8333V0.5Z" fill="white" stroke="white"/>
</svg>
