<svg width="18" height="18" viewBox="0 0 18 18" fill="none" xmlns="http://www.w3.org/2000/svg">
<path d="M16.1145 4.93953H14.6733C14.5749 4.93953 14.4826 4.89733 14.4211 4.82299C14.2776 4.6522 14.1238 4.48744 13.9619 4.33071C13.2995 3.68084 12.5148 3.16294 11.6514 2.80565C10.7568 2.43534 9.79531 2.24537 8.82423 2.24707C7.84222 2.24707 6.89095 2.43594 5.9971 2.80565C5.13364 3.16294 4.34901 3.68084 3.6866 4.33071C3.023 4.97838 2.49386 5.74604 2.12849 6.59117C1.74922 7.46723 1.55856 8.39753 1.55856 9.35999C1.55856 10.3224 1.75127 11.2527 2.12849 12.1288C2.49342 12.9747 3.01825 13.7362 3.6866 14.3893C4.35494 15.0423 5.13194 15.5567 5.9971 15.9143C6.89095 16.284 7.84222 16.4729 8.82423 16.4729C9.80624 16.4729 10.7575 16.286 11.6514 15.9143C12.5165 15.5567 13.2935 15.0423 13.9619 14.3893C14.1238 14.2305 14.2755 14.0658 14.4211 13.897C14.4826 13.8226 14.5769 13.7804 14.6733 13.7804H16.1145C16.2437 13.7804 16.3236 13.9211 16.2519 14.0276C14.6794 16.4227 11.9281 18.008 8.80168 18C3.88956 17.9879 -0.0487471 14.0798 0.000456061 9.27158C0.0496593 4.53968 3.98182 0.720001 8.82423 0.720001C11.9425 0.720001 14.6815 2.30333 16.2519 4.69238C16.3216 4.79888 16.2437 4.93953 16.1145 4.93953ZM17.9371 9.48657L15.0279 11.737C14.9193 11.8214 14.7614 11.745 14.7614 11.6104L14.7614 10.0833L8.324 10.0833C8.23379 10.0833 8.15999 10.011 8.15999 9.92259V8.79738C8.15999 8.70897 8.23379 8.63664 8.324 8.63664H14.7614V7.10957C14.7614 6.97495 14.9213 6.89859 15.0279 6.98299L17.9371 9.2334C17.9567 9.24844 17.9725 9.26765 17.9834 9.28958C17.9943 9.31151 18 9.33559 18 9.35999C18 9.38438 17.9943 9.40846 17.9834 9.43039C17.9725 9.45232 17.9567 9.47153 17.9371 9.48657Z" fill="#4C4C4C"/>
</svg>
