<svg width="18" height="22" viewBox="0 0 18 22" fill="none" xmlns="http://www.w3.org/2000/svg">
<path d="M8.52632 21.375V17.9686C3.78 17.7226 0 13.7864 0 8.98904C0 4.03088 4.03579 0 9 0C13.9642 0 18 4.03088 18 8.98904C18 13.6728 14.7411 18.385 9.88105 20.7221L8.52632 21.375ZM9 1.89243C5.0779 1.89243 1.89474 5.07171 1.89474 8.98904C1.89474 12.9064 5.0779 16.0857 9 16.0857H10.4211V18.262C13.8695 16.0857 16.1053 12.509 16.1053 8.98904C16.1053 5.07171 12.9221 1.89243 9 1.89243ZM8.05263 12.7739H9.94737V14.6663H8.05263V12.7739ZM9.94737 11.3546H8.05263C8.05263 8.27938 10.8947 8.51594 10.8947 6.62351C10.8947 5.58267 10.0421 4.73108 9 4.73108C7.95789 4.73108 7.10526 5.58267 7.10526 6.62351H5.21053C5.21053 4.53237 6.90632 2.83865 9 2.83865C11.0937 2.83865 12.7895 4.53237 12.7895 6.62351C12.7895 8.98904 9.94737 9.2256 9.94737 11.3546Z" fill="#4C4C4C"/>
</svg>
