<svg width="360" height="640" viewBox="0 0 360 640" fill="none" xmlns="http://www.w3.org/2000/svg">
<g clip-path="url(#clip0_1_4218)">
<rect width="360" height="640" fill="white"/>
<rect width="360" height="640" fill="url(#paint0_linear_1_4218)"/>
<path d="M284.309 614.276L284.024 614.846L283.852 615.13L283.738 615.415L283.51 615.984L283.338 616.553L283.224 616.837L283.167 617.122C283.11 617.35 283.053 617.52 283.053 617.748C282.938 618.374 282.881 619.057 282.881 619.683C282.767 619.398 282.653 619.057 282.539 618.715C282.31 617.976 282.082 617.179 281.967 616.439C282.024 617.236 282.082 618.032 282.253 618.829C282.31 619.114 282.367 619.455 282.481 619.74C281.796 619 281.053 618.317 280.311 617.691C279.911 617.406 279.511 617.065 279.054 616.837C278.825 616.724 278.654 616.553 278.426 616.439L277.74 616.098C277.512 615.984 277.283 615.87 277.055 615.756L276.369 615.415C275.912 615.244 275.455 615.073 274.941 614.846C275.398 615.073 275.855 615.244 276.312 615.472L276.94 615.813C277.169 615.927 277.397 616.041 277.569 616.211L278.197 616.61C278.426 616.724 278.597 616.894 278.825 617.065C279.225 617.35 279.625 617.691 279.968 617.976C280.711 618.659 281.396 619.341 281.967 620.138C282.139 620.309 282.253 620.537 282.367 620.707C282.481 620.935 282.653 621.106 282.767 621.333C282.938 621.618 283.11 621.959 283.224 622.244C283.281 622.415 283.338 622.528 283.395 622.699L284.195 622.301C284.138 622.13 284.024 621.959 283.967 621.846C283.91 621.675 283.852 621.447 283.795 621.276C283.681 620.878 283.624 620.537 283.567 620.138C283.453 619.341 283.453 618.545 283.51 617.748C283.51 617.52 283.567 617.35 283.567 617.122L283.624 616.837L283.681 616.553L283.795 615.984L283.967 615.415L284.081 615.13L284.195 614.846L284.424 614.276C284.595 613.878 284.766 613.537 284.995 613.195C284.766 613.537 284.538 613.878 284.309 614.276Z" fill="#89A51D"/>
<path d="M298.99 610.634C289.393 610.634 281.625 618.374 281.625 627.935H316.413C316.413 618.431 308.645 610.634 298.99 610.634Z" fill="#89A51D"/>
<path d="M274.655 617.065C268.6 617.065 263.688 621.959 263.688 627.992H285.623C285.623 621.959 280.711 617.065 274.655 617.065Z" fill="#89A51D"/>
<path opacity="0.3" d="M274.656 617.065C274.084 617.065 273.513 617.122 272.942 617.179C278.197 617.976 282.196 622.528 282.196 627.935H285.624C285.624 621.959 280.711 617.065 274.656 617.065Z" fill="#89A51D"/>
<path opacity="0.3" d="M298.991 610.634C298.477 610.634 297.962 610.634 297.391 610.691C306.245 611.488 313.215 618.886 313.215 627.935H316.357C316.414 618.431 308.645 610.634 298.991 610.634Z" fill="#89A51D"/>
<path d="M293.678 620.081C295.666 620.081 297.277 618.476 297.277 616.496C297.277 614.516 295.666 612.911 293.678 612.911C291.69 612.911 290.079 614.516 290.079 616.496C290.079 618.476 291.69 620.081 293.678 620.081Z" fill="#A0BE26"/>
<path d="M287.623 620.707C288.475 620.707 289.165 620.019 289.165 619.171C289.165 618.322 288.475 617.634 287.623 617.634C286.771 617.634 286.081 618.322 286.081 619.171C286.081 620.019 286.771 620.707 287.623 620.707Z" fill="#A0BE26"/>
<path d="M271.342 622.13C272.352 622.13 273.17 621.315 273.17 620.309C273.17 619.303 272.352 618.488 271.342 618.488C270.333 618.488 269.514 619.303 269.514 620.309C269.514 621.315 270.333 622.13 271.342 622.13Z" fill="#A0BE26"/>
<path d="M268.257 622.472C268.699 622.472 269.057 622.115 269.057 621.675C269.057 621.235 268.699 620.878 268.257 620.878C267.816 620.878 267.458 621.235 267.458 621.675C267.458 622.115 267.816 622.472 268.257 622.472Z" fill="#A0BE26"/>
<path d="M120.933 618.317L120.705 618.715L120.59 618.943L120.476 619.171L120.305 619.626L120.133 620.081L120.076 620.309L120.019 620.536C119.962 620.707 119.962 620.821 119.905 620.992C119.791 621.504 119.791 621.959 119.791 622.471C119.676 622.244 119.619 622.016 119.505 621.732C119.334 621.163 119.162 620.593 119.048 619.967C119.048 620.593 119.162 621.163 119.276 621.789C119.334 622.016 119.391 622.244 119.448 622.471C118.934 621.902 118.362 621.39 117.791 620.935C117.448 620.707 117.163 620.48 116.82 620.252C116.649 620.138 116.477 620.024 116.306 619.967L115.792 619.683C115.62 619.569 115.449 619.512 115.278 619.455L114.764 619.228C114.421 619.057 114.021 618.943 113.678 618.829C114.021 619 114.364 619.171 114.706 619.341L115.221 619.626C115.392 619.74 115.563 619.797 115.735 619.91L116.192 620.195C116.363 620.309 116.477 620.423 116.649 620.536C116.934 620.764 117.22 620.992 117.563 621.219C118.134 621.732 118.648 622.301 119.105 622.87C119.219 623.041 119.334 623.154 119.448 623.325C119.562 623.496 119.676 623.61 119.733 623.78C119.848 624.008 120.019 624.236 120.076 624.52C120.133 624.634 120.133 624.748 120.19 624.862L120.819 624.577C120.762 624.463 120.705 624.349 120.647 624.236C120.59 624.122 120.533 623.951 120.476 623.78C120.419 623.496 120.305 623.211 120.305 622.87C120.19 622.244 120.19 621.675 120.248 621.049C120.248 620.878 120.305 620.764 120.305 620.593L120.362 620.366L120.419 620.138L120.533 619.683L120.647 619.228L120.705 619L120.819 618.772L120.99 618.317C121.104 618.032 121.276 617.748 121.39 617.463C121.276 617.805 121.047 618.089 120.933 618.317Z" fill="#475D05"/>
<path d="M132.129 615.585C124.76 615.585 118.819 621.504 118.819 628.846H145.382C145.439 621.504 139.498 615.585 132.129 615.585Z" fill="#62820F"/>
<path d="M113.564 620.48C108.937 620.48 105.224 624.236 105.224 628.788H121.961C121.904 624.236 118.191 620.48 113.564 620.48Z" fill="#62820F"/>
<path d="M113.564 620.48C113.107 620.48 112.65 620.536 112.25 620.593C116.249 621.219 119.276 624.691 119.276 628.845H121.904C121.904 624.236 118.191 620.48 113.564 620.48Z" fill="#475D05"/>
<path d="M132.129 615.585C131.729 615.585 131.33 615.585 130.93 615.642C137.728 616.268 143.04 621.902 143.04 628.846H145.439C145.439 621.504 139.498 615.585 132.129 615.585Z" fill="#475D05"/>
<path d="M128.074 622.813C129.588 622.813 130.816 621.59 130.816 620.081C130.816 618.573 129.588 617.35 128.074 617.35C126.559 617.35 125.332 618.573 125.332 620.081C125.332 621.59 126.559 622.813 128.074 622.813Z" fill="#89A51D"/>
<path d="M123.446 623.211C124.077 623.211 124.589 622.702 124.589 622.073C124.589 621.444 124.077 620.935 123.446 620.935C122.815 620.935 122.304 621.444 122.304 622.073C122.304 622.702 122.815 623.211 123.446 623.211Z" fill="#89A51D"/>
<path d="M110.994 624.349C111.751 624.349 112.365 623.738 112.365 622.984C112.365 622.229 111.751 621.618 110.994 621.618C110.236 621.618 109.623 622.229 109.623 622.984C109.623 623.738 110.236 624.349 110.994 624.349Z" fill="#89A51D"/>
<path d="M108.651 624.577C108.967 624.577 109.223 624.322 109.223 624.008C109.223 623.694 108.967 623.439 108.651 623.439C108.336 623.439 108.08 623.694 108.08 624.008C108.08 624.322 108.336 624.577 108.651 624.577Z" fill="#89A51D"/>
<path d="M20.9646 614.276L20.679 614.846L20.5076 615.13L20.3934 615.415L20.1649 615.984L19.9935 616.553L19.8793 616.837L19.8222 617.122C19.765 617.35 19.7079 617.52 19.7079 617.748C19.5937 618.374 19.5365 619.057 19.5365 619.683C19.4223 619.398 19.308 619.057 19.1938 618.715C18.9653 617.976 18.7368 617.179 18.6225 616.439C18.6797 617.236 18.7368 618.032 18.9082 618.829C18.9653 619.114 19.0224 619.455 19.1367 619.74C18.4512 619 17.7085 618.317 16.9659 617.691C16.566 617.406 16.1662 617.065 15.7092 616.837C15.4807 616.724 15.3093 616.553 15.0808 616.439L14.3953 616.098C14.1668 615.984 13.9383 615.87 13.7098 615.756L13.0243 615.415C12.5673 615.244 12.1103 615.073 11.5962 614.846C12.0532 615.073 12.5102 615.244 12.9672 615.472L13.5956 615.813C13.8241 615.927 14.0526 616.041 14.2239 616.211L14.8523 616.61C15.0808 616.724 15.2522 616.894 15.4807 617.065C15.8805 617.35 16.2804 617.691 16.6232 617.976C17.3658 618.659 18.0513 619.341 18.6225 620.138C18.7939 620.309 18.9082 620.537 19.0224 620.707C19.1367 620.935 19.308 621.106 19.4223 621.333C19.5937 621.618 19.765 621.959 19.8793 622.244C19.9364 622.415 19.9935 622.528 20.0506 622.699L20.8504 622.301C20.7933 622.13 20.679 621.959 20.6219 621.846C20.5648 621.675 20.5076 621.447 20.4505 621.276C20.3363 620.878 20.2792 620.537 20.222 620.138C20.1078 619.341 20.1078 618.545 20.1649 617.748C20.1649 617.52 20.222 617.35 20.222 617.122L20.2792 616.837L20.3363 616.553L20.4505 615.984L20.6219 615.415L20.7361 615.13L20.8504 614.846L21.0789 614.276C21.2503 613.878 21.4216 613.537 21.6501 613.195C21.4216 613.537 21.1931 613.878 20.9646 614.276Z" fill="#89A51D"/>
<path d="M35.7028 610.634C26.0487 610.634 18.2798 618.431 18.2798 627.992H53.0687C53.0687 618.431 45.2998 610.634 35.7028 610.634Z" fill="#89A51D"/>
<path d="M11.3107 617.065C5.2555 617.065 0.342773 621.959 0.342773 627.992H22.2787C22.2787 621.959 17.3659 617.065 11.3107 617.065Z" fill="#89A51D"/>
<path opacity="0.3" d="M11.3109 617.065C10.7397 617.065 10.1684 617.122 9.59717 617.179C14.8526 617.976 18.8514 622.528 18.8514 627.935H22.2789C22.2789 621.959 17.3661 617.065 11.3109 617.065Z" fill="#89A51D"/>
<path opacity="0.3" d="M35.703 610.634C35.1889 610.634 34.6748 610.634 34.1035 610.691C42.9578 611.488 49.9271 618.886 49.9271 627.935H53.0689C53.0689 618.431 45.3 610.634 35.703 610.634Z" fill="#89A51D"/>
<path d="M30.3332 620.081C32.3208 620.081 33.9321 618.476 33.9321 616.496C33.9321 614.516 32.3208 612.911 30.3332 612.911C28.3456 612.911 26.7344 614.516 26.7344 616.496C26.7344 618.476 28.3456 620.081 30.3332 620.081Z" fill="#A0BE26"/>
<path d="M24.2782 620.707C25.13 620.707 25.8206 620.019 25.8206 619.171C25.8206 618.322 25.13 617.634 24.2782 617.634C23.4264 617.634 22.7358 618.322 22.7358 619.171C22.7358 620.019 23.4264 620.707 24.2782 620.707Z" fill="#A0BE26"/>
<path d="M7.99742 622.13C9.007 622.13 9.82542 621.315 9.82542 620.309C9.82542 619.303 9.007 618.488 7.99742 618.488C6.98785 618.488 6.16943 619.303 6.16943 620.309C6.16943 621.315 6.98785 622.13 7.99742 622.13Z" fill="#A0BE26"/>
<path d="M4.91254 622.472C5.35423 622.472 5.71229 622.115 5.71229 621.675C5.71229 621.235 5.35423 620.878 4.91254 620.878C4.47085 620.878 4.11279 621.235 4.11279 621.675C4.11279 622.115 4.47085 622.472 4.91254 622.472Z" fill="#A0BE26"/>
<path d="M218.616 619.854L218.445 620.252L218.331 620.423L218.273 620.594L218.102 620.992L217.988 621.39L217.931 621.618L217.874 621.846C217.816 621.959 217.816 622.13 217.759 622.244C217.702 622.699 217.645 623.098 217.645 623.553C217.588 623.325 217.474 623.154 217.417 622.927C217.245 622.415 217.131 621.902 217.017 621.39C217.017 621.902 217.074 622.472 217.188 622.984C217.245 623.211 217.302 623.382 217.359 623.61C216.902 623.098 216.388 622.642 215.874 622.244C215.589 622.073 215.303 621.846 215.017 621.675C214.846 621.561 214.732 621.504 214.56 621.39L214.103 621.163C213.932 621.106 213.818 620.992 213.646 620.935L213.189 620.707C212.904 620.594 212.561 620.48 212.218 620.366C212.504 620.537 212.847 620.65 213.132 620.821L213.589 621.049C213.761 621.106 213.875 621.22 214.046 621.276L214.446 621.561C214.56 621.675 214.732 621.732 214.846 621.846C215.132 622.016 215.36 622.244 215.646 622.472C216.16 622.927 216.617 623.382 217.017 623.951C217.131 624.065 217.188 624.236 217.302 624.35C217.417 624.463 217.474 624.634 217.588 624.748C217.702 624.976 217.816 625.146 217.931 625.374C217.988 625.488 217.988 625.602 218.045 625.659L218.559 625.374C218.502 625.26 218.445 625.146 218.388 625.033C218.331 624.919 218.273 624.805 218.273 624.634C218.216 624.407 218.159 624.122 218.102 623.837C218.045 623.325 217.988 622.756 218.045 622.244C218.045 622.13 218.102 621.959 218.102 621.846L218.159 621.618L218.216 621.447L218.331 621.049L218.445 620.65L218.502 620.48L218.559 620.309L218.73 619.911C218.845 619.683 218.959 619.398 219.13 619.171C218.902 619.398 218.788 619.626 218.616 619.854Z" fill="#89A51D"/>
<path d="M228.499 617.406C222.044 617.406 216.788 622.642 216.788 629.073H240.152C240.209 622.642 234.954 617.406 228.499 617.406Z" fill="#89A51D"/>
<path d="M212.161 621.732C208.105 621.732 204.792 625.033 204.792 629.073H219.53C219.53 625.033 216.217 621.732 212.161 621.732Z" fill="#89A51D"/>
<path opacity="0.3" d="M212.161 621.732C211.761 621.732 211.361 621.789 211.019 621.846C214.56 622.415 217.245 625.431 217.245 629.073H219.53C219.53 625.033 216.217 621.732 212.161 621.732Z" fill="#89A51D"/>
<path opacity="0.3" d="M228.499 617.406C228.156 617.406 227.813 617.406 227.471 617.463C233.412 617.976 238.096 622.984 238.096 629.073H240.21C240.21 622.642 234.954 617.406 228.499 617.406Z" fill="#89A51D"/>
<path d="M224.9 623.724C226.225 623.724 227.299 622.653 227.299 621.333C227.299 620.013 226.225 618.943 224.9 618.943C223.575 618.943 222.501 620.013 222.501 621.333C222.501 622.653 223.575 623.724 224.9 623.724Z" fill="#A0BE26"/>
<path d="M220.844 624.179C221.412 624.179 221.872 623.72 221.872 623.154C221.872 622.589 221.412 622.13 220.844 622.13C220.276 622.13 219.816 622.589 219.816 623.154C219.816 623.72 220.276 624.179 220.844 624.179Z" fill="#A0BE26"/>
<path d="M209.876 625.089C210.539 625.089 211.076 624.554 211.076 623.894C211.076 623.234 210.539 622.699 209.876 622.699C209.214 622.699 208.677 623.234 208.677 623.894C208.677 624.554 209.214 625.089 209.876 625.089Z" fill="#A0BE26"/>
<path d="M207.82 625.317C208.104 625.317 208.334 625.088 208.334 624.805C208.334 624.522 208.104 624.293 207.82 624.293C207.536 624.293 207.306 624.522 207.306 624.805C207.306 625.088 207.536 625.317 207.82 625.317Z" fill="#A0BE26"/>
<path d="M360 627.366H0V640H360V627.366Z" fill="#324E60"/>
<path d="M50.0984 626.057H1.82799C0.799746 626.057 0 626.626 0 627.309C0 627.992 0.799746 628.561 1.82799 628.561H50.1555C51.1838 628.561 51.9835 627.992 51.9835 627.309C51.9264 626.626 51.1266 626.057 50.0984 626.057Z" fill="#D8CBC5"/>
<path d="M291.336 626.057H103.567C102.539 626.057 101.739 626.626 101.739 627.309C101.739 627.992 102.539 628.561 103.567 628.561H291.336C292.364 628.561 293.164 627.992 293.164 627.309C293.164 626.626 292.307 626.057 291.336 626.057Z" fill="#D8CBC5"/>
<path d="M358.172 626.057H345.833C344.805 626.057 344.005 626.626 344.005 627.309C344.005 627.992 344.805 628.561 345.833 628.561H358.172C359.2 628.561 360 627.992 360 627.309C360 626.626 359.143 626.057 358.172 626.057Z" fill="#D8CBC5"/>
<path d="M11.0252 636.073H2.0566C1.77098 636.073 1.54248 636.244 1.54248 636.472C1.54248 636.699 1.77098 636.87 2.0566 636.87H11.0252C11.3108 636.87 11.5393 636.699 11.5393 636.472C11.5393 636.244 11.3108 636.073 11.0252 636.073Z" fill="#D8CBC5"/>
<path d="M70.3775 636.073H52.3261C52.0405 636.073 51.812 636.244 51.812 636.472C51.812 636.699 52.0405 636.87 52.3261 636.87H70.3204C70.606 636.87 70.8345 636.699 70.8345 636.472C70.8917 636.244 70.6632 636.073 70.3775 636.073Z" fill="#D8CBC5"/>
<path d="M129.673 636.073H111.679C111.394 636.073 111.165 636.244 111.165 636.472C111.165 636.699 111.394 636.87 111.679 636.87H129.673C129.959 636.87 130.188 636.699 130.188 636.472C130.188 636.244 129.959 636.073 129.673 636.073Z" fill="#D8CBC5"/>
<path d="M248.321 636.073H230.327C230.042 636.073 229.813 636.244 229.813 636.472C229.813 636.699 230.042 636.87 230.327 636.87H248.321C248.607 636.87 248.836 636.699 248.836 636.472C248.836 636.244 248.607 636.073 248.321 636.073Z" fill="#D8CBC5"/>
<path d="M188.969 636.073H170.975C170.689 636.073 170.46 636.244 170.46 636.472C170.46 636.699 170.689 636.87 170.975 636.87H188.969C189.254 636.87 189.483 636.699 189.483 636.472C189.54 636.244 189.312 636.073 188.969 636.073Z" fill="#D8CBC5"/>
<path d="M307.617 636.073H289.623C289.337 636.073 289.108 636.244 289.108 636.472C289.108 636.699 289.337 636.87 289.623 636.87H307.617C307.902 636.87 308.131 636.699 308.131 636.472C308.188 636.244 307.902 636.073 307.617 636.073Z" fill="#D8CBC5"/>
<path d="M357.944 636.073H348.975C348.689 636.073 348.461 636.244 348.461 636.472C348.461 636.699 348.689 636.87 348.975 636.87H357.944C358.229 636.87 358.458 636.699 358.458 636.472C358.458 636.244 358.229 636.073 357.944 636.073Z" fill="#D8CBC5"/>
<path d="M268.032 633L311.504 634.423L268.032 635.902V633Z" fill="#233A4C"/>
<path d="M269.518 629.813L296.709 631.293L269.518 632.715V629.813Z" fill="#233A4C"/>
<path d="M269.518 624.748L289.797 626.228L269.518 627.707V624.748Z" fill="#233A4C"/>
<path d="M288.369 563.854V622.528H293.51V563.854H288.369Z" fill="#11345B"/>
<path d="M288.369 623.724H228.216C227.416 623.724 226.788 623.098 226.788 622.301V596.065C226.788 594.87 227.416 593.732 228.445 593.106L232.501 590.659L241.184 567.211C242.269 563.797 245.468 561.463 249.067 561.463H287.226C288.54 561.463 289.625 562.545 289.625 563.854V622.528C289.625 623.211 289.054 623.724 288.369 623.724Z" fill="#11345B"/>
<path d="M279.286 614.22H289.625V563.854C289.625 562.545 288.54 561.463 287.226 561.463H249.067C245.468 561.463 242.269 563.797 241.184 567.211L232.501 590.659L228.445 593.106C227.416 593.732 226.788 594.87 226.788 596.065V622.358C226.788 623.154 227.416 623.781 228.216 623.781H246.782C246.725 623.098 246.667 622.415 246.667 621.732C246.667 612.285 254.379 604.659 263.805 604.659C270.603 604.602 276.487 608.528 279.286 614.22Z" fill="url(#paint1_linear_1_4218)"/>
<path opacity="0.5" d="M286.483 614.219V565.732C286.483 564.138 285.17 562.829 283.57 562.829H249.067C246.039 562.829 243.411 564.764 242.497 567.61L233.357 592.48V617.862C233.357 620.366 235.414 622.358 237.87 622.358H246.667C246.667 622.13 246.667 621.902 246.667 621.675C246.667 621.39 246.667 621.106 246.667 620.821H237.87C236.214 620.821 234.9 619.512 234.9 617.862V592.764L243.925 568.122C244.611 565.902 246.667 564.366 249.01 564.366H283.513C284.256 564.366 284.884 564.992 284.884 565.732V614.219H286.483Z" fill="#F8A71D"/>
<path opacity="0.5" d="M280.885 564.366H249.067C246.725 564.366 244.668 565.846 243.983 568.065L235.814 589.976C235.585 590.715 235.7 591.569 236.214 592.195C236.671 592.821 237.413 593.219 238.213 593.219H244.44C247.353 593.219 250.209 592.195 252.437 590.317L253.237 589.691C255.351 587.927 257.978 586.959 260.72 586.959H280.885C282.371 586.959 283.57 585.764 283.57 584.285V567.041C283.57 565.561 282.371 564.366 280.885 564.366Z" fill="#F8A71D"/>
<path d="M283.57 563.228H249.067C246.211 563.228 243.697 565.049 242.84 567.78L233.757 592.48V592.537V617.862C233.757 620.138 235.585 621.959 237.87 621.959H286.084V565.732C286.084 564.366 284.941 563.228 283.57 563.228ZM285.341 621.219H237.927C236.099 621.219 234.557 619.74 234.557 617.862V592.707L243.64 568.008C244.383 565.618 246.61 564.024 249.124 564.024H283.627C284.598 564.024 285.398 564.821 285.398 565.789V621.219H285.341Z" fill="#11345B"/>
<path d="M260.72 586.504H280.885C282.142 586.504 283.227 585.48 283.227 584.171V567.041C283.227 565.789 282.199 564.707 280.885 564.707H249.067C246.896 564.707 245.011 566.073 244.325 568.179L236.156 590.089C235.757 591.455 236.728 592.821 238.156 592.821H244.382C247.239 592.821 249.981 591.854 252.151 590.033L252.951 589.406C255.122 587.528 257.864 586.504 260.72 586.504Z" fill="#11345B"/>
<path opacity="0.5" d="M282.713 590.659H276.487C275.915 590.659 275.458 591.114 275.458 591.683C275.458 592.252 275.915 592.707 276.487 592.707H282.713C283.285 592.707 283.742 592.252 283.742 591.683C283.742 591.114 283.285 590.659 282.713 590.659Z" fill="#F8A71D"/>
<path d="M282.142 590.146H275.915C275.344 590.146 274.887 590.602 274.887 591.171C274.887 591.74 275.344 592.195 275.915 592.195H282.142C282.713 592.195 283.17 591.74 283.17 591.171C283.17 590.602 282.713 590.146 282.142 590.146Z" fill="#FEECCC"/>
<path d="M230.787 618.431H225.417V607.163C225.417 606.138 224.503 605.285 223.475 605.398C222.561 605.512 221.875 606.309 221.875 607.219V618.431V619.854C221.875 620.593 222.275 621.219 222.789 621.618C223.132 621.845 223.532 621.959 223.989 621.959H225.417H230.844C231.872 621.959 232.729 621.049 232.615 620.024C232.558 619.114 231.701 618.431 230.787 618.431Z" fill="#11345B"/>
<path d="M279.286 614.22C280.371 616.496 280.999 619.057 280.999 621.732C280.999 622.415 280.942 623.098 280.885 623.78H288.368C289.054 623.78 289.625 623.211 289.625 622.528V614.22H279.286Z" fill="#11345B"/>
<path d="M238.27 581.951L237.128 581.496C237.071 581.439 236.671 581.496 236.671 581.496C236.385 581.382 236.157 582.008 236.157 582.862V590.772C236.157 591.626 236.385 592.423 236.671 592.537L237.813 592.992C237.87 593.049 238.27 592.992 238.27 592.992C238.556 593.106 238.784 592.48 238.784 591.626V583.715C238.784 582.862 238.556 582.065 238.27 581.951Z" fill="#EACFA4"/>
<path d="M237.813 581.951L236.671 581.496C236.385 581.382 236.157 582.008 236.157 582.862V590.772C236.157 591.626 236.385 592.423 236.671 592.536L237.813 592.992C238.099 593.105 238.327 592.479 238.327 591.626V583.715C238.327 582.862 238.099 582.065 237.813 581.951Z" fill="#FEECCC"/>
<path d="M279.286 614.22C276.487 608.528 270.66 604.602 263.862 604.602C263.634 604.602 263.405 604.602 263.177 604.602C269.632 604.886 275.173 608.699 277.858 614.163C278.943 616.439 279.572 619 279.572 621.675C279.572 622.358 279.514 623.041 279.457 623.724H280.885C280.943 623.041 281 622.358 281 621.675C281 619 280.371 616.496 279.286 614.22Z" fill="#FEECCC"/>
<path d="M263.862 636.87C272.254 636.87 279.057 630.092 279.057 621.732C279.057 613.371 272.254 606.594 263.862 606.594C255.47 606.594 248.667 613.371 248.667 621.732C248.667 630.092 255.47 636.87 263.862 636.87Z" fill="#233A4C"/>
<path d="M263.862 635.732C271.623 635.732 277.915 629.464 277.915 621.732C277.915 614 271.623 607.732 263.862 607.732C256.101 607.732 249.81 614 249.81 621.732C249.81 629.464 256.101 635.732 263.862 635.732Z" fill="#294259"/>
<path d="M263.862 631.122C269.068 631.122 273.288 626.918 273.288 621.732C273.288 616.546 269.068 612.341 263.862 612.341C258.656 612.341 254.437 616.546 254.437 621.732C254.437 626.918 258.656 631.122 263.862 631.122Z" fill="#233A4C"/>
<path d="M263.862 629.87C268.374 629.87 272.031 626.226 272.031 621.732C272.031 617.237 268.374 613.593 263.862 613.593C259.351 613.593 255.693 617.237 255.693 621.732C255.693 626.226 259.351 629.87 263.862 629.87Z" fill="#FEECCC"/>
<path d="M268.889 615.358C269.975 616.724 270.66 618.488 270.66 620.366C270.66 624.862 267.004 628.504 262.491 628.504C260.606 628.504 258.835 627.821 257.464 626.74C258.95 628.618 261.292 629.813 263.862 629.813C268.375 629.813 272.031 626.171 272.031 621.675C271.974 619.114 270.774 616.837 268.889 615.358Z" fill="#D8BF98"/>
<path d="M297.223 623.724H402.733C406.046 623.724 408.674 621.049 408.674 617.805V554.919C408.674 551.618 405.989 549 402.733 549H297.223C293.91 549 291.282 551.675 291.282 554.919V617.805C291.282 621.106 293.967 623.724 297.223 623.724Z" fill="url(#paint2_linear_1_4218)"/>
<path d="M400.39 623.724H342.694C341.952 623.724 341.323 623.098 341.323 622.358V597.146C341.323 596.008 341.952 594.927 342.923 594.301L346.807 591.911L355.147 569.488C356.176 566.187 359.26 563.967 362.688 563.967H399.305C400.562 563.967 401.59 564.992 401.59 566.244V622.528C401.59 623.211 401.076 623.724 400.39 623.724Z" fill="#11345B"/>
<path d="M400.448 561.463H362.288C358.69 561.463 355.491 563.797 354.405 567.211L345.722 590.602L341.666 593.049C340.638 593.675 340.01 594.813 340.01 596.008V622.301C340.01 623.098 340.638 623.724 341.438 623.724H360.003C359.946 623.041 359.889 622.358 359.889 621.675C359.889 612.228 367.601 604.602 377.027 604.602C383.824 604.602 389.651 608.528 392.45 614.22C393.536 616.496 394.164 619.057 394.164 621.732C394.164 622.415 394.107 623.098 394.05 623.781H401.533C402.219 623.781 402.79 623.211 402.79 622.528V614.22V563.854C402.847 562.545 401.819 561.463 400.448 561.463Z" fill="url(#paint3_linear_1_4218)"/>
<path d="M408.731 565.39H291.282V582.122H408.731V565.39Z" fill="#FEECCC"/>
<path opacity="0.5" d="M404.275 552.699H295.681C295.395 552.699 295.109 552.927 295.109 553.268V619.512C295.109 619.797 295.338 620.081 295.681 620.081H404.275C404.56 620.081 404.846 619.854 404.846 619.512V553.268C404.846 552.984 404.56 552.699 404.275 552.699ZM404.046 553.496V619.285H295.909V553.496H404.046Z" fill="#F8A71D"/>
<path d="M404.675 552.642H295.338C295.166 552.642 294.995 552.813 294.995 552.984V619.683C294.995 619.854 295.166 620.024 295.338 620.024H404.675C404.846 620.024 405.017 619.854 405.017 619.683V553.041C405.017 552.813 404.846 552.642 404.675 552.642ZM404.617 619.683H295.338V553.041H404.617V619.683Z" fill="#11345B"/>
<path opacity="0.25" d="M404.789 602.667H295.052V603.236H404.789V602.667Z" fill="#11345B"/>
</g>
<defs>
<linearGradient id="paint0_linear_1_4218" x1="180" y1="-49" x2="180" y2="204.5" gradientUnits="userSpaceOnUse">
<stop stop-color="#293A96"/>
<stop offset="1" stop-color="white"/>
</linearGradient>
<linearGradient id="paint1_linear_1_4218" x1="258.228" y1="623.742" x2="258.228" y2="561.468" gradientUnits="userSpaceOnUse">
<stop stop-color="#FE9F0F"/>
<stop offset="1" stop-color="#FDBF2C"/>
</linearGradient>
<linearGradient id="paint2_linear_1_4218" x1="349.993" y1="623.742" x2="349.993" y2="549" gradientUnits="userSpaceOnUse">
<stop stop-color="#FE9F0F"/>
<stop offset="1" stop-color="#FDBF2C"/>
</linearGradient>
<linearGradient id="paint3_linear_1_4218" x1="371.476" y1="622.941" x2="371.476" y2="549.01" gradientUnits="userSpaceOnUse">
<stop stop-color="#FE9F0F"/>
<stop offset="1" stop-color="#FDBF2C"/>
</linearGradient>
<clipPath id="clip0_1_4218">
<rect width="360" height="640" fill="white"/>
</clipPath>
</defs>
</svg>
