<svg width="278" height="368" viewBox="0 0 278 368" fill="none" xmlns="http://www.w3.org/2000/svg">
<g clip-path="url(#clip0_2_4379)">
<path opacity="0.53" d="M228.982 328.489H25.2694C11.3062 328.489 0 317.236 0 303.38V52.0564C0 38.2002 11.3062 26.9477 25.2694 26.9477H229C242.945 26.9477 254.27 38.182 254.27 52.0564V303.38C254.252 317.236 242.945 328.489 228.982 328.489Z" fill="#293A96" fill-opacity="0.14"/>
<path d="M88.562 71.5754L91.1458 71.5571" stroke="#293A96" stroke-miterlimit="10"/>
<path d="M96.0381 71.5399L152.129 71.3751" stroke="#293A96" stroke-miterlimit="10" stroke-dasharray="2.66 2.66"/>
<path d="M154.566 71.3568H157.15L157.187 73.9423" stroke="#293A96" stroke-miterlimit="10"/>
<path d="M157.26 78.8402L158.14 144.971" stroke="#293A96" stroke-miterlimit="10" stroke-dasharray="2.69 2.69"/>
<path d="M158.176 147.429L158.213 150.015H160.815" stroke="#293A96" stroke-miterlimit="10"/>
<path d="M165.616 150.015H220.773" stroke="#293A96" stroke-miterlimit="10" stroke-dasharray="2.62 2.62"/>
<path d="M223.155 150.015H225.757L225.684 152.582" stroke="#293A96" stroke-miterlimit="10"/>
<path d="M225.555 157.553L224.841 184.81" stroke="#293A96" stroke-miterlimit="10" stroke-dasharray="2.72 2.72"/>
<path d="M224.767 187.286L224.712 189.854H222.11" stroke="#293A96" stroke-miterlimit="10"/>
<path d="M216.998 189.854H154.09L76.6875 187.887" stroke="#293A96" stroke-miterlimit="10" stroke-dasharray="2.79 2.79"/>
<path d="M74.1406 187.833L71.5386 187.76V190.345" stroke="#293A96" stroke-miterlimit="10"/>
<path d="M71.5386 196.172V216.528" stroke="#293A96" stroke-miterlimit="10" stroke-dasharray="3.2 3.2"/>
<path d="M71.5386 219.442V222.027L68.9365 222.045" stroke="#293A96" stroke-miterlimit="10"/>
<path d="M64.0988 222.1L47.1304 222.265" stroke="#293A96" stroke-miterlimit="10" stroke-dasharray="2.65 2.65"/>
<path d="M44.7117 222.282L42.1096 222.319L42.0913 224.904" stroke="#293A96" stroke-miterlimit="10"/>
<path d="M42.0544 229.802L41.7979 266.618" stroke="#293A96" stroke-miterlimit="10" stroke-dasharray="2.7 2.7"/>
<path d="M41.7796 269.076L41.7612 271.662L44.3633 271.589" stroke="#293A96" stroke-miterlimit="10"/>
<path d="M49.5493 271.443L192.26 267.602" stroke="#293A96" stroke-miterlimit="10" stroke-dasharray="2.83 2.83"/>
<path d="M194.844 267.529L197.446 267.456" stroke="#293A96" stroke-miterlimit="10"/>
<path d="M82.7166 14.4024C70.0727 15.0761 60.2692 26.0555 60.8189 38.9467C61.387 51.8379 85.7768 84.8488 85.7768 84.8488C85.7768 84.8488 107.198 49.4345 106.63 36.5433C106.08 23.6521 95.3605 13.747 82.7166 14.4024ZM84.2009 48.5787C77.4025 48.9429 71.6487 43.8993 71.3738 37.3444C71.0806 30.7896 76.3764 25.1815 83.1747 24.8174C89.9731 24.4532 95.727 29.4968 96.0018 36.0516C96.2767 42.6247 90.9993 48.2327 84.2009 48.5787Z" fill="#293A96"/>
<path d="M38.7744 180.404C32.9839 180.713 28.5128 185.939 28.7693 192.075C29.0442 198.211 40.2404 213.943 40.2404 213.943C40.2404 213.943 50.0073 197.101 49.7508 190.965C49.4759 184.828 44.565 180.094 38.7744 180.404ZM39.4891 196.682C36.3739 196.846 33.7352 194.442 33.6069 191.329C33.4787 188.197 35.8792 185.539 38.9943 185.375C42.1095 185.211 44.7482 187.614 44.8765 190.728C45.0047 193.841 42.5859 196.518 39.4891 196.682Z" fill="#293A96"/>
<path d="M224.749 107.7C218.959 108.009 214.487 113.235 214.744 119.371C215.019 125.507 226.215 141.239 226.215 141.239C226.215 141.239 235.982 124.396 235.725 118.26C235.451 112.124 230.54 107.39 224.749 107.7ZM225.464 123.978C222.349 124.142 219.71 121.738 219.582 118.625C219.453 115.493 221.854 112.834 224.969 112.671C228.084 112.507 230.723 114.91 230.851 118.024C230.979 121.137 228.579 123.814 225.464 123.978Z" fill="#293A96"/>
<path d="M123.434 115.402C115.572 115.784 107.711 115.948 99.85 116.094C91.9888 116.239 84.1276 116.221 76.2664 116.312C68.4053 116.239 60.5441 116.239 52.6829 116.112L40.9003 115.857C36.9789 115.711 33.0391 115.62 29.1177 115.402C33.0391 115.201 36.9789 115.11 40.9003 114.947L52.6829 114.71C60.5441 114.564 68.4053 114.564 76.2664 114.51C84.1276 114.582 91.9888 114.564 99.85 114.728C107.711 114.855 115.572 115.019 123.434 115.402Z" fill="#293A96"/>
<path d="M69.5228 130.296C62.7794 131.006 56.0544 131.17 49.311 131.206C42.5676 131.188 35.8425 131.024 29.0991 130.296C35.8425 129.567 42.5676 129.404 49.311 129.385C56.0544 129.422 62.7794 129.586 69.5228 130.296Z" fill="#293A96"/>
<path opacity="0.22" d="M267.143 47.8325C273.192 28.3349 262.189 7.65623 242.567 1.64535C222.945 -4.36552 202.134 6.56763 196.084 26.0652C190.035 45.5628 201.038 66.2416 220.66 72.2524C240.283 78.2633 261.094 67.3302 267.143 47.8325Z" fill="white"/>
<path d="M211.446 5.89937C194.184 16.9698 189.237 39.8389 200.36 56.9725C211.501 74.1244 234.517 79.0405 251.76 67.9883C269.021 56.9179 273.969 34.0488 262.846 16.9152C251.723 -0.236697 228.708 -5.15283 211.446 5.89937ZM249.341 64.2557C234.168 73.9969 213.92 69.6452 204.116 54.5691C194.313 39.493 198.692 19.3732 213.865 9.63199C229.038 -0.109243 249.286 4.24245 259.09 19.3186C268.893 34.4129 264.532 54.5327 249.341 64.2557Z" fill="#293A96"/>
<path d="M276.516 103.876C275.013 104.841 272.997 104.404 272.008 102.911L249.634 68.4799C248.663 66.9869 249.102 64.984 250.605 64.0008C252.108 63.0358 254.123 63.4545 255.113 64.9658L277.487 99.397C278.458 100.908 278.018 102.911 276.516 103.876Z" fill="#293A96"/>
<path d="M218.092 350.148L278 352.108L218.092 354.147V350.148Z" fill="#233A4C"/>
<path d="M220.139 345.756L257.611 347.795L220.139 349.755V345.756Z" fill="#233A4C"/>
<path d="M220.139 338.776L248.007 340.815L220.139 342.854V338.776Z" fill="#233A4C"/>
<path d="M64.3481 350.148L124.256 352.108L64.3481 354.147V350.148Z" fill="#233A4C"/>
<path d="M66.3955 345.756L103.867 347.795L66.3955 349.755V345.756Z" fill="#233A4C"/>
<path d="M66.3955 338.776L94.3419 340.815L66.3955 342.854V338.776Z" fill="#233A4C"/>
<path d="M260.366 337.364C258.792 337.364 257.611 336.109 257.611 334.619V324.031C257.611 322.463 258.87 321.286 260.366 321.286C261.941 321.286 263.121 322.541 263.121 324.031V334.619C263.121 336.109 261.862 337.364 260.366 337.364Z" fill="#11345B"/>
<path d="M92.3735 254.859V335.717H99.4585V254.859H92.3735Z" fill="#11345B"/>
<path d="M92.3732 337.364H9.4788C8.37669 337.364 7.51074 336.501 7.51074 335.403V299.248C7.51074 297.602 8.37668 296.033 9.79368 295.17L15.383 291.798L27.3487 259.486C28.8444 254.78 33.2529 251.565 38.2124 251.565H90.7987C92.6094 251.565 94.1051 253.055 94.1051 254.859V335.717C94.1051 336.658 93.3178 337.364 92.3732 337.364Z" fill="#11345B"/>
<path d="M79.8564 324.267H94.1051V254.859C94.1051 253.055 92.6094 251.565 90.7987 251.565H38.2124C33.2529 251.565 28.8444 254.78 27.3487 259.486L15.383 291.798L9.79368 295.17C8.37668 296.033 7.51074 297.602 7.51074 299.248V335.482C7.51074 336.58 8.37669 337.442 9.4788 337.442H35.0635C34.9848 336.501 34.906 335.56 34.906 334.619C34.906 321.6 45.5335 311.091 58.5227 311.091C67.8906 311.013 75.999 316.424 79.8564 324.267Z" fill="url(#paint0_linear_2_4379)"/>
<path opacity="0.5" d="M89.7755 324.267V257.447C89.7755 255.251 87.9649 253.447 85.7607 253.447H38.2125C34.0403 253.447 30.4191 256.114 29.1595 260.035L16.564 294.307V329.286C16.564 332.737 19.398 335.482 22.783 335.482H34.9062C34.9062 335.168 34.9062 334.854 34.9062 334.541C34.9062 334.148 34.9062 333.756 34.9062 333.364H22.783C20.5001 333.364 18.6895 331.56 18.6895 329.286V294.7L31.1276 260.741C32.0722 257.682 34.9062 255.565 38.1338 255.565H85.682C86.7054 255.565 87.5713 256.427 87.5713 257.447V324.267H89.7755Z" fill="#F8A71D"/>
<path opacity="0.5" d="M82.0608 255.565H38.2126C34.985 255.565 32.151 257.604 31.2063 260.662L19.9491 290.857C19.6342 291.876 19.7916 293.053 20.5001 293.915C21.1299 294.778 22.1533 295.327 23.2554 295.327H31.8361C35.851 295.327 39.7871 293.915 42.8572 291.327L43.9593 290.465C46.872 288.033 50.4933 286.7 54.2719 286.7H82.0608C84.1076 286.7 85.7608 285.053 85.7608 283.014V259.251C85.7608 257.212 84.1076 255.565 82.0608 255.565Z" fill="#F8A71D"/>
<path d="M85.7604 253.996H38.2123C34.2762 253.996 30.8124 256.506 29.6316 260.27L17.1147 294.308V294.386V329.286C17.1147 332.423 19.6339 334.933 22.7827 334.933H89.2242V257.447C89.2242 255.565 87.6498 253.996 85.7604 253.996ZM88.2008 333.913H22.8615C20.3424 333.913 18.2169 331.874 18.2169 329.286V294.621L30.7337 260.584C31.7571 257.29 34.8272 255.094 38.291 255.094H85.8391C87.1774 255.094 88.2795 256.192 88.2795 257.525V333.913H88.2008Z" fill="#11345B"/>
<path d="M54.2717 286.073H82.0606C83.7925 286.073 85.2882 284.661 85.2882 282.857V259.251C85.2882 257.525 83.8712 256.035 82.0606 256.035H38.2124C35.2209 256.035 32.6231 257.917 31.6784 260.819L20.4212 291.014C19.8701 292.896 21.2084 294.778 23.1764 294.778H31.7571C35.6932 294.778 39.4719 293.445 42.4633 290.935L43.5655 290.072C46.5569 287.484 50.3356 286.073 54.2717 286.073Z" fill="#11345B"/>
<path opacity="0.5" d="M84.5802 291.798H75.9995C75.2123 291.798 74.5825 292.425 74.5825 293.21C74.5825 293.994 75.2123 294.621 75.9995 294.621H84.5802C85.3674 294.621 85.9972 293.994 85.9972 293.21C85.9972 292.425 85.3674 291.798 84.5802 291.798Z" fill="#F8A71D"/>
<path d="M83.7926 291.092H75.2119C74.4247 291.092 73.7949 291.719 73.7949 292.504C73.7949 293.288 74.4247 293.915 75.2119 293.915H83.7926C84.5799 293.915 85.2096 293.288 85.2096 292.504C85.2096 291.719 84.5799 291.092 83.7926 291.092Z" fill="#FEECCC"/>
<path d="M13.0214 330.07H5.62149V314.542C5.62149 313.13 4.36194 311.954 2.94494 312.11C1.68539 312.267 0.740723 313.365 0.740723 314.62V330.07V332.031C0.740723 333.05 1.29178 333.913 2.00028 334.462C2.47261 334.776 3.02366 334.933 3.65344 334.933H5.62149H13.1001C14.5171 334.933 15.6979 333.678 15.5405 332.266C15.4618 331.011 14.2809 330.07 13.0214 330.07Z" fill="#11345B"/>
<path d="M79.8564 324.267C81.3522 327.404 82.2181 330.933 82.2181 334.619C82.2181 335.56 82.1394 336.501 82.0607 337.442H92.3733C93.3179 337.442 94.1051 336.658 94.1051 335.717V324.267H79.8564Z" fill="#11345B"/>
<path d="M23.3341 279.799L21.7597 279.171C21.6809 279.093 21.1299 279.171 21.1299 279.171C20.7363 279.014 20.4214 279.877 20.4214 281.053V291.955C20.4214 293.131 20.7363 294.229 21.1299 294.386L22.7043 295.013C22.783 295.092 23.3341 295.013 23.3341 295.013C23.7277 295.17 24.0426 294.308 24.0426 293.131V282.23C24.0426 281.053 23.7277 279.955 23.3341 279.799Z" fill="#EACFA4"/>
<path d="M22.7043 279.798L21.1299 279.171C20.7363 279.014 20.4214 279.877 20.4214 281.053V291.954C20.4214 293.131 20.7363 294.229 21.1299 294.386L22.7043 295.013C23.0979 295.17 23.4128 294.307 23.4128 293.131V282.229C23.4128 281.053 23.0979 279.955 22.7043 279.798Z" fill="#FEECCC"/>
<path d="M79.8569 324.267C75.9995 316.424 67.9698 311.013 58.6019 311.013C58.287 311.013 57.9721 311.013 57.6572 311.013C66.5528 311.405 74.1889 316.659 77.8888 324.188C79.3845 327.325 80.2505 330.855 80.2505 334.541C80.2505 335.482 80.1718 336.423 80.093 337.364H82.0611C82.1398 336.423 82.2185 335.482 82.2185 334.541C82.2185 330.855 81.3526 327.404 79.8569 324.267Z" fill="#FEECCC"/>
<path d="M58.6017 355.481C70.1666 355.481 79.5418 346.141 79.5418 334.619C79.5418 323.097 70.1666 313.757 58.6017 313.757C47.0368 313.757 37.6616 323.097 37.6616 334.619C37.6616 346.141 47.0368 355.481 58.6017 355.481Z" fill="#233A4C"/>
<path d="M58.602 353.912C69.2973 353.912 77.9676 345.274 77.9676 334.619C77.9676 323.964 69.2973 315.326 58.602 315.326C47.9066 315.326 39.2363 323.964 39.2363 334.619C39.2363 345.274 47.9066 353.912 58.602 353.912Z" fill="#294259"/>
<path d="M58.6015 347.559C65.7752 347.559 71.5906 341.766 71.5906 334.619C71.5906 327.472 65.7752 321.679 58.6015 321.679C51.4277 321.679 45.6123 327.472 45.6123 334.619C45.6123 341.766 51.4277 347.559 58.6015 347.559Z" fill="#233A4C"/>
<path d="M58.602 345.834C64.8192 345.834 69.8593 340.813 69.8593 334.619C69.8593 328.425 64.8192 323.404 58.602 323.404C52.3848 323.404 47.3447 328.425 47.3447 334.619C47.3447 340.813 52.3848 345.834 58.602 345.834Z" fill="#FEECCC"/>
<path d="M65.5296 325.835C67.0253 327.717 67.97 330.149 67.97 332.737C67.97 338.932 62.9318 343.952 56.7127 343.952C54.1149 343.952 51.6745 343.011 49.7852 341.521C51.8319 344.109 55.0595 345.756 58.602 345.756C64.8211 345.756 69.8593 340.736 69.8593 334.541C69.7806 331.011 68.1274 327.874 65.5296 325.835Z" fill="#D8BF98"/>
<path d="M104.576 337.364H249.976C254.541 337.364 258.163 333.678 258.163 329.208V242.546C258.163 237.997 254.463 234.389 249.976 234.389H104.576C100.01 234.389 96.3887 238.075 96.3887 242.546V329.208C96.3887 333.756 100.089 337.364 104.576 337.364Z" fill="url(#paint1_linear_2_4379)"/>
<path d="M246.747 337.364H167.238C166.215 337.364 165.349 336.501 165.349 335.482V300.739C165.349 299.17 166.215 297.68 167.553 296.817L172.906 293.523L184.399 262.623C185.816 258.074 190.067 255.016 194.791 255.016H245.252C246.983 255.016 248.4 256.427 248.4 258.153V335.717C248.4 336.658 247.692 337.364 246.747 337.364Z" fill="#11345B"/>
<path d="M246.827 251.565H194.24C189.281 251.565 184.872 254.78 183.377 259.486L171.411 291.719L165.822 295.092C164.405 295.955 163.539 297.523 163.539 299.17V335.403C163.539 336.501 164.405 337.364 165.507 337.364H191.091C191.013 336.423 190.934 335.482 190.934 334.541C190.934 321.522 201.561 311.013 214.55 311.013C223.918 311.013 231.948 316.424 235.805 324.267C237.301 327.404 238.167 330.933 238.167 334.619C238.167 335.56 238.088 336.501 238.01 337.442H248.322C249.267 337.442 250.054 336.658 250.054 335.717V324.267V254.859C250.133 253.055 248.716 251.565 246.827 251.565Z" fill="url(#paint2_linear_2_4379)"/>
<path d="M258.241 256.976H96.3887V280.034H258.241V256.976Z" fill="#FEECCC"/>
<path opacity="0.5" d="M252.101 239.487H102.45C102.056 239.487 101.663 239.801 101.663 240.271V331.56C101.663 331.953 101.977 332.345 102.45 332.345H252.101C252.494 332.345 252.888 332.031 252.888 331.56V240.271C252.888 239.879 252.494 239.487 252.101 239.487ZM251.786 240.585V331.247H102.765V240.585H251.786Z" fill="#F8A71D"/>
<path d="M252.651 239.409H101.977C101.741 239.409 101.505 239.644 101.505 239.879V331.796C101.505 332.031 101.741 332.266 101.977 332.266H252.651C252.888 332.266 253.124 332.031 253.124 331.796V239.958C253.124 239.644 252.888 239.409 252.651 239.409ZM252.573 331.796H101.977V239.958H252.573V331.796Z" fill="#11345B"/>
<path d="M214.629 355.481C226.193 355.481 235.569 346.141 235.569 334.619C235.569 323.097 226.193 313.757 214.629 313.757C203.064 313.757 193.688 323.097 193.688 334.619C193.688 346.141 203.064 355.481 214.629 355.481Z" fill="#233A4C"/>
<path d="M214.629 353.912C225.324 353.912 233.994 345.274 233.994 334.619C233.994 323.964 225.324 315.326 214.629 315.326C203.933 315.326 195.263 323.964 195.263 334.619C195.263 345.274 203.933 353.912 214.629 353.912Z" fill="#294259"/>
<path d="M214.629 347.559C221.803 347.559 227.618 341.766 227.618 334.619C227.618 327.472 221.803 321.679 214.629 321.679C207.455 321.679 201.64 327.472 201.64 334.619C201.64 341.766 207.455 347.559 214.629 347.559Z" fill="#233A4C"/>
<path d="M214.629 345.834C220.846 345.834 225.886 340.813 225.886 334.619C225.886 328.425 220.846 323.404 214.629 323.404C208.412 323.404 203.372 328.425 203.372 334.619C203.372 340.813 208.412 345.834 214.629 345.834Z" fill="#FEECCC"/>
<path d="M221.557 325.835C223.053 327.717 223.997 330.149 223.997 332.737C223.997 338.933 218.959 343.952 212.74 343.952C210.142 343.952 207.702 343.011 205.812 341.521C207.859 344.109 211.087 345.756 214.629 345.756C220.848 345.756 225.887 340.736 225.887 334.541C225.887 331.011 224.155 327.874 221.557 325.835Z" fill="#D8BF98"/>
<path d="M235.884 324.267C232.027 316.424 223.997 311.013 214.629 311.013C214.314 311.013 213.999 311.013 213.685 311.013C222.58 311.405 230.216 316.659 233.916 324.188C235.412 327.325 236.278 330.855 236.278 334.541C236.278 335.482 236.199 336.423 236.12 337.364H238.088C238.167 336.423 238.246 335.482 238.246 334.541C238.246 330.855 237.38 327.404 235.884 324.267Z" fill="#FEECCC"/>
<path opacity="0.25" d="M252.809 308.346H101.584V309.13H252.809V308.346Z" fill="#11345B"/>
</g>
<defs>
<linearGradient id="paint0_linear_2_4379" x1="50.8375" y1="337.39" x2="50.8375" y2="251.571" gradientUnits="userSpaceOnUse">
<stop stop-color="#FE9F0F"/>
<stop offset="1" stop-color="#FDBF2C"/>
</linearGradient>
<linearGradient id="paint1_linear_2_4379" x1="177.296" y1="337.39" x2="177.296" y2="234.389" gradientUnits="userSpaceOnUse">
<stop stop-color="#FE9F0F"/>
<stop offset="1" stop-color="#FDBF2C"/>
</linearGradient>
<linearGradient id="paint2_linear_2_4379" x1="206.901" y1="336.286" x2="206.901" y2="234.404" gradientUnits="userSpaceOnUse">
<stop stop-color="#FE9F0F"/>
<stop offset="1" stop-color="#FDBF2C"/>
</linearGradient>
<clipPath id="clip0_2_4379">
<rect width="278" height="368" fill="white"/>
</clipPath>
</defs>
</svg>
